<?xml version="1.0" standalone="no"?><!DOCTYPE svg PUBLIC "-//W3C//DTD SVG 1.1//EN" "http://www.w3.org/Graphics/SVG/1.1/DTD/svg11.dtd"><svg t="1609142128054" class="icon" viewBox="0 0 1024 1024" version="1.1" xmlns="http://www.w3.org/2000/svg" p-id="2259" xmlns:xlink="http://www.w3.org/1999/xlink" width="200" height="200"><defs><style type="text/css"></style></defs><path d="M703.787744 831.616096l-607.848038 0.415896A95.928018 95.928018 0 0 0 0.04368 928.055986a95.976006 95.976006 0 0 0 96.03999 95.928018l607.832042-0.3999a95.976006 95.976006 0 1 0-0.127968-191.968008z" fill="#DAE2E5" p-id="2260"></path><path d="M735.875722 959.568108L64.027684 960.047988c-24.329918 0-46.308423-9.325669-63.2002-24.217946 4.014996 49.331667 44.884779 88.20195 95.256186 88.169958l607.832042-0.3999c50.355411-0.047988 91.177206-38.950262 95.144214-88.313922-16.891777 14.940265-38.83829 24.28193-63.184204 24.28193z" opacity=".1" p-id="2261"></path><path d="M995.330858 379.68108c-37.526618-37.494626-91.897026-24.665834-135.742064 0.07998l-156.024994 99.95901-0.143964-223.96001C703.307864 114.419395 588.632533-0.095976 447.307864 0L351.315862 0.07998C209.991193 0.175956 95.459826 114.851287 95.555802 256.191952l0.383904 575.856036 607.848038-0.415896 291.591102-316.208948c38.086478-41.253687 37.446638-98.295426-0.047988-135.742064z" fill="#EF4D4D" p-id="2262"></path><path d="M95.907714 800.055986l0.031992 31.992002 607.848038-0.431892 29.528618-32.007998z" opacity=".15" p-id="2263"></path><path d="M859.572798 379.76106L703.547804 479.72007l0.063984 95.96001 191.856036-160.087978s42.933267-42.901275 93.656586-40.869783c-37.142714-30.60035-87.994001-18.411397-129.551612 5.038741zM447.307864 0L351.315862 0.07998C225.619286 0.15996 121.32536 90.985254 99.794742 210.539365c46.740315-50.547363 113.395651-82.395401 187.617096-82.459385l223.704074-0.15996c74.397401-0.031992 141.196701 31.864034 188.001 82.555361C677.618286 90.809298 573.132408-0.07998 447.307864 0z" fill="#FFFFFF" opacity=".15" p-id="2264"></path><path d="M875.488819 612.774806l-45.236691 45.316671-45.268683-45.236691a31.96001 31.96001 0 0 0-45.236691 0.047988l-45.220695 45.284679-45.252686-45.236691a31.992002 31.992002 0 0 0-45.236691 0.031992l-45.204699 45.284679-45.300675-45.220695c-0.527868-0.527868-1.247688-0.71982-1.807548-1.215696v-0.127968c-0.335916-0.287928-0.751812-0.335916-1.087728-0.63984a30.824294 30.824294 0 0 0-20.314921-6.846288c-0.623844 0-1.183704 0.223944-1.807548 0.271932-3.071232 0.303924-6.094476 0.7998-9.021745 1.951512-1.087728 0.431892-2.015496 1.215696-3.087228 1.775556-1.983504 1.103724-4.110972 1.871532-5.886529 3.391152v0.623844c-0.495876 0.431892-1.11972 0.575856-1.647588 1.087728l-45.236691 45.300675-45.252686-45.252687a31.976006 31.976006 0 0 0-45.236691 0.047988l-45.220695 45.284679-45.252687-45.236691a32.03999 32.03999 0 0 0-45.252687 0.031992l-45.204698 45.300675-45.284679-45.220695a30.984254 30.984254 0 0 0-11.069233-6.974256l0.07998 86.410397 33.687578 33.655586a32.03999 32.03999 0 0 0 45.252687-0.047988l45.220695-45.268682 45.268683 45.220694a31.992002 31.992002 0 0 0 45.23669-0.031992l45.204699-45.284678 45.268683 45.204698a31.992002 31.992002 0 0 0 45.252687-0.015996l45.060735-45.108722 44.868783 44.820794a32.055986 32.055986 0 0 0 45.268682-0.047988l45.204699-45.268682 45.252687 45.188702a31.992002 31.992002 0 0 0 45.236691 0l45.220695-45.284678 41.925518 41.845538 106.597351-115.619095c-11.757061-5.374656-25.817546-3.871032-35.47913 5.806548z" fill="#EACA44" p-id="2265"></path></svg>